<svg xmlns="http://www.w3.org/2000/svg" width="20" height="20" viewBox="0 0 20 20"><g><g><path fill="#0075ff" d="M8.583 12.114l7.68-9.174a.73.73 0 0 1 1.002-.086.725.725 0 0 1 .086.998l-8.164 9.76a.79.79 0 0 1-.517.258h-.035a.694.694 0 0 1-.5-.206L4.873 10.41a.705.705 0 0 1 0-.998.71.71 0 0 1 1 0zm6.939-9.622a.702.702 0 0 1-.967.224C11.138.598 6.771 1.098 3.906 3.937c-3.348 3.34-3.348 8.797 0 12.136 3.348 3.34 8.82 3.34 12.168 0 2.865-2.857 3.366-7.23 1.208-10.637a.702.702 0 0 1 1.19-.74c2.504 3.959 1.934 9.053-1.397 12.375A10.014 10.014 0 0 1 10 19.998c-2.555 0-5.126-.981-7.077-2.927-3.9-3.89-3.9-10.241 0-14.131a9.975 9.975 0 0 1 12.375-1.412.698.698 0 0 1 .225.964z"/></g></g></svg>